<?xml version="1.0" encoding="UTF-8" standalone="no"?>
<!-- Created with Inkscape (http://www.inkscape.org/) -->

<svg
   xmlns:osb="http://www.openswatchbook.org/uri/2009/osb"
   xmlns:dc="http://purl.org/dc/elements/1.1/"
   xmlns:cc="http://creativecommons.org/ns#"
   xmlns:rdf="http://www.w3.org/1999/02/22-rdf-syntax-ns#"
   xmlns:svg="http://www.w3.org/2000/svg"
   xmlns="http://www.w3.org/2000/svg"
   xmlns:sodipodi="http://sodipodi.sourceforge.net/DTD/sodipodi-0.dtd"
   xmlns:inkscape="http://www.inkscape.org/namespaces/inkscape"
   width="297mm"
   height="210mm"
   viewBox="0 0 1052.3622 744.09448"
   id="svg2"
   version="1.1"
   inkscape:version="0.91 r13725"
   sodipodi:docname="PlatformTile.svg">
  <defs
     id="defs4">
    <linearGradient
       id="linearGradient4157"
       osb:paint="solid">
      <stop
         style="stop-color:#ffffff;stop-opacity:1;"
         offset="0"
         id="stop4159" />
    </linearGradient>
  </defs>
  <sodipodi:namedview
     id="base"
     pagecolor="#ffffff"
     bordercolor="#666666"
     borderopacity="1.0"
     inkscape:pageopacity="0.0"
     inkscape:pageshadow="2"
     inkscape:zoom="5.9994736"
     inkscape:cx="97.951204"
     inkscape:cy="649.90599"
     inkscape:document-units="px"
     inkscape:current-layer="layer1"
     showgrid="true"
     showguides="true"
     inkscape:guide-bbox="true"
     inkscape:window-width="1280"
     inkscape:window-height="1002"
     inkscape:window-x="1358"
     inkscape:window-y="-8"
     inkscape:window-maximized="1">
    <inkscape:grid
       type="xygrid"
       id="grid4136"
       dotted="true" />
    <sodipodi:guide
       position="55.000001,770"
       orientation="1,0"
       id="guide4165" />
    <sodipodi:guide
       position="30,695"
       orientation="0,1"
       id="guide4167" />
    <sodipodi:guide
       position="130,605"
       orientation="0,1"
       id="guide4169" />
    <sodipodi:guide
       position="145,655"
       orientation="1,0"
       id="guide4171" />
    <sodipodi:guide
       position="60.000001,715"
       orientation="1,0"
       id="guide4173" />
    <sodipodi:guide
       position="140,635"
       orientation="1,0"
       id="guide4175" />
    <sodipodi:guide
       position="100,690"
       orientation="0,1"
       id="guide4177" />
    <sodipodi:guide
       position="100,610"
       orientation="0,1"
       id="guide4179" />
    <sodipodi:guide
       position="54.000001,685"
       orientation="0,1"
       id="guide4181" />
    <sodipodi:guide
       position="50.000001,715"
       orientation="1,0"
       id="guide4183" />
    <sodipodi:guide
       position="30,700"
       orientation="0,1"
       id="guide4185" />
    <sodipodi:guide
       position="40.000001,680"
       orientation="0,1"
       id="guide4187" />
    <sodipodi:guide
       position="65.000001,710"
       orientation="1,0"
       id="guide4189" />
    <sodipodi:guide
       position="45.000001,675"
       orientation="0,1"
       id="guide4191" />
    <sodipodi:guide
       position="40.000001,670"
       orientation="0,1"
       id="guide4193" />
    <sodipodi:guide
       position="40.000001,665"
       orientation="0,1"
       id="guide4195" />
    <sodipodi:guide
       position="40.000001,660"
       orientation="0,1"
       id="guide4197" />
    <sodipodi:guide
       position="40.000001,655"
       orientation="0,1"
       id="guide4199" />
    <sodipodi:guide
       position="40.000001,650"
       orientation="0,1"
       id="guide4201" />
    <sodipodi:guide
       position="40.000001,645"
       orientation="0,1"
       id="guide4203" />
    <sodipodi:guide
       position="40.000001,640"
       orientation="0,1"
       id="guide4205" />
    <sodipodi:guide
       position="40.000001,635"
       orientation="0,1"
       id="guide4207" />
    <sodipodi:guide
       position="40.000001,630"
       orientation="0,1"
       id="guide4209" />
    <sodipodi:guide
       position="40.000001,625"
       orientation="0,1"
       id="guide4211" />
    <sodipodi:guide
       position="40.000001,620"
       orientation="0,1"
       id="guide4213" />
    <sodipodi:guide
       position="40.000001,615"
       orientation="0,1"
       id="guide4215" />
    <sodipodi:guide
       position="70.000001,702"
       orientation="1,0"
       id="guide4261" />
    <sodipodi:guide
       position="75.000001,705"
       orientation="1,0"
       id="guide4263" />
    <sodipodi:guide
       position="80.000001,710"
       orientation="1,0"
       id="guide4265" />
    <sodipodi:guide
       position="85.000001,710"
       orientation="1,0"
       id="guide4267" />
    <sodipodi:guide
       position="90.000001,710"
       orientation="1,0"
       id="guide4269" />
    <sodipodi:guide
       position="95.000002,710"
       orientation="1,0"
       id="guide4271" />
    <sodipodi:guide
       position="100,715"
       orientation="1,0"
       id="guide4273" />
    <sodipodi:guide
       position="105,710"
       orientation="1,0"
       id="guide4275" />
    <sodipodi:guide
       position="110,705"
       orientation="1,0"
       id="guide4277" />
    <sodipodi:guide
       position="115,710"
       orientation="1,0"
       id="guide4279" />
    <sodipodi:guide
       position="120,710"
       orientation="1,0"
       id="guide4281" />
    <sodipodi:guide
       position="125,710"
       orientation="1,0"
       id="guide4283" />
    <sodipodi:guide
       position="130,710"
       orientation="1,0"
       id="guide4285" />
    <sodipodi:guide
       position="135,710"
       orientation="1,0"
       id="guide4287" />
  </sodipodi:namedview>
  <metadata
     id="metadata7">
    <rdf:RDF>
      <cc:Work
         rdf:about="">
        <dc:format>image/svg+xml</dc:format>
        <dc:type
           rdf:resource="http://purl.org/dc/dcmitype/StillImage" />
        <dc:title></dc:title>
      </cc:Work>
    </rdf:RDF>
  </metadata>
  <g
     inkscape:label="Capa 1"
     inkscape:groupmode="layer"
     id="layer1"
     transform="translate(0,-308.26772)">
    <path
       style="fill:#ff0000;fill-opacity:1;stroke:#000000;stroke-width:1;stroke-miterlimit:4;stroke-dasharray:none;stroke-dashoffset:0;stroke-opacity:1;stroke-linejoin:miter"
       d="M 49.951172 44.044922 L 49.951172 139.14258 L 145.04883 139.14258 L 145.04883 44.044922 L 49.951172 44.044922 z M 137.33398 49.099609 C 138.79894 49.167889 139.88867 51.351564 139.88867 51.351562 L 139.88867 71.648438 C 139.88867 71.648438 137.35761 76.722645 134.82617 71.648438 L 134.82617 51.351562 C 135.69635 49.607293 136.56661 49.063809 137.33398 49.099609 z M 97.498047 49.101562 C 98.963008 49.169843 100.05273 51.355469 100.05273 51.355469 L 100.05273 71.652344 C 100.05273 71.652344 97.521678 76.726554 94.990234 71.652344 L 94.990234 51.355469 C 95.860418 49.611199 96.730678 49.065763 97.498047 49.101562 z M 117.33203 49.101562 C 118.79699 49.169843 119.88672 51.355469 119.88672 51.355469 L 119.88672 71.652344 C 119.88672 71.652344 117.35567 76.726554 114.82422 71.652344 L 114.82422 51.355469 C 115.69441 49.611199 116.56466 49.065763 117.33203 49.101562 z M 77.496094 49.103516 C 78.961055 49.171796 80.052734 51.357422 80.052734 51.357422 L 80.052734 71.654297 C 80.052734 71.654297 77.519725 76.728507 74.988281 71.654297 L 74.988281 51.357422 C 75.858465 49.613152 76.728725 49.067716 77.496094 49.103516 z M 57.5 49.267578 C 58.964961 49.335858 60.054688 51.521484 60.054688 51.521484 L 60.054688 71.818359 C 60.054688 71.818359 57.523632 76.892569 54.992188 71.818359 L 54.992188 51.521484 C 55.862372 49.777214 56.732631 49.231778 57.5 49.267578 z M 127.50391 64.097656 C 128.96887 64.165936 130.05859 66.351562 130.05859 66.351562 L 130.05859 86.648438 C 130.05859 86.648438 127.52754 91.722645 124.99609 86.648438 L 124.99609 66.351562 C 125.86628 64.607293 126.73654 64.061856 127.50391 64.097656 z M 87.667969 64.101562 C 89.13293 64.169843 90.222656 66.353516 90.222656 66.353516 L 90.222656 86.650391 C 90.222656 86.650391 87.6916 91.724601 85.160156 86.650391 L 85.160156 66.353516 C 86.03034 64.609246 86.9006 64.065763 87.667969 64.101562 z M 107.50195 64.101562 C 108.96691 64.169843 110.05664 66.353516 110.05664 66.353516 L 110.05664 86.650391 C 110.05664 86.650391 107.52558 91.724601 104.99414 86.650391 L 104.99414 66.353516 C 105.86432 64.609246 106.73458 64.065763 107.50195 64.101562 z M 67.666016 64.103516 C 69.130977 64.171796 70.222656 66.357422 70.222656 66.357422 L 70.222656 86.652344 C 70.222656 86.652344 67.689647 91.726554 65.158203 86.652344 L 65.158203 66.357422 C 66.028387 64.613152 66.898647 64.067716 67.666016 64.103516 z M 57.5 79.089844 C 58.964961 79.158124 60.054688 81.34375 60.054688 81.34375 L 60.054688 101.64062 C 60.054688 101.64062 57.523632 106.71483 54.992188 101.64062 L 54.992188 81.34375 C 55.862372 79.59948 56.732631 79.054044 57.5 79.089844 z M 137.50195 79.103516 C 138.96691 79.171796 140.05664 81.357422 140.05664 81.357422 L 140.05664 101.6543 C 140.05664 101.6543 137.52558 106.72851 134.99414 101.6543 L 134.99414 81.357422 C 135.86432 79.613152 136.73458 79.067716 137.50195 79.103516 z M 97.666016 79.105469 C 99.130977 79.173749 100.2207 81.359375 100.2207 81.359375 L 100.2207 101.65625 C 100.2207 101.65625 97.689647 106.73046 95.158203 101.65625 L 95.158203 81.359375 C 96.028387 79.615105 96.898647 79.069669 97.666016 79.105469 z M 117.5 79.105469 C 118.96496 79.173749 120.05469 81.359375 120.05469 81.359375 L 120.05469 101.65625 C 120.05469 101.65625 117.52364 106.73046 114.99219 101.65625 L 114.99219 81.359375 C 115.86238 79.615105 116.73263 79.069669 117.5 79.105469 z M 77.664062 79.109375 C 79.129024 79.177655 80.220703 81.361328 80.220703 81.361328 L 80.220703 101.6582 C 80.220703 101.6582 77.687694 106.73241 75.15625 101.6582 L 75.15625 81.361328 C 76.026434 79.617058 76.896693 79.073575 77.664062 79.109375 z M 127.50195 94.101562 C 128.96691 94.169843 130.05664 96.355469 130.05664 96.355469 L 130.05664 116.65234 C 130.05664 116.65234 127.52558 121.72655 124.99414 116.65234 L 124.99414 96.355469 C 125.86432 94.611199 126.73458 94.065766 127.50195 94.101562 z M 87.666016 94.103516 C 89.130977 94.171796 90.220703 96.357422 90.220703 96.357422 L 90.220703 116.6543 C 90.220703 116.6543 87.689647 121.72851 85.158203 116.6543 L 85.158203 96.357422 C 86.028387 94.613152 86.898647 94.067716 87.666016 94.103516 z M 107.5 94.103516 C 108.96496 94.171796 110.05469 96.357422 110.05469 96.357422 L 110.05469 116.6543 C 110.05469 116.6543 107.52364 121.72851 104.99219 116.6543 L 104.99219 96.357422 C 105.86238 94.613152 106.73263 94.067716 107.5 94.103516 z M 67.664062 94.105469 C 69.129024 94.173749 70.220703 96.359375 70.220703 96.359375 L 70.220703 116.65625 C 70.220703 116.65625 67.687694 121.73046 65.15625 116.65625 L 65.15625 96.359375 C 66.026434 94.615105 66.896693 94.069669 67.664062 94.105469 z M 57.677734 109.26758 C 59.142695 109.33586 60.232422 111.52148 60.232422 111.52148 L 60.232422 131.81836 C 60.232422 131.81836 57.701366 136.89257 55.169922 131.81836 L 55.169922 111.52148 C 56.040106 109.77721 56.910365 109.23178 57.677734 109.26758 z M 137.33594 109.26953 C 138.8009 109.33781 139.89062 111.52344 139.89062 111.52344 L 139.89062 131.82031 C 139.89063 131.82031 137.35957 136.89452 134.82812 131.82031 L 134.82812 111.52344 C 135.69831 109.77917 136.56857 109.23373 137.33594 109.26953 z M 97.5 109.27344 C 98.964961 109.34172 100.05469 111.52539 100.05469 111.52539 L 100.05469 131.82227 C 100.05469 131.82227 97.523631 136.89648 94.992188 131.82227 L 94.992188 111.52539 C 95.862369 109.78112 96.732631 109.23764 97.5 109.27344 z M 117.33398 109.27344 C 118.79894 109.34172 119.88867 111.52539 119.88867 111.52539 L 119.88867 131.82227 C 119.88867 131.82227 117.35762 136.89648 114.82617 131.82227 L 114.82617 111.52539 C 115.69636 109.78112 116.56661 109.23764 117.33398 109.27344 z M 77.498047 109.27539 C 78.963008 109.34367 80.052734 111.5293 80.052734 111.5293 L 80.052734 131.82617 C 80.052734 131.82617 77.521678 136.90038 74.990234 131.82617 L 74.990234 111.5293 C 75.860418 109.78503 76.730678 109.23959 77.498047 109.27539 z "
       transform="translate(0,308.26772)"
       id="rect4138" />
  </g>
</svg>
