<?xml version="1.0" encoding="UTF-8" standalone="no"?>
<!-- Created with Inkscape (http://www.inkscape.org/) -->

<svg
   xmlns:dc="http://purl.org/dc/elements/1.1/"
   xmlns:cc="http://creativecommons.org/ns#"
   xmlns:rdf="http://www.w3.org/1999/02/22-rdf-syntax-ns#"
   xmlns:svg="http://www.w3.org/2000/svg"
   xmlns="http://www.w3.org/2000/svg"
   xmlns:sodipodi="http://sodipodi.sourceforge.net/DTD/sodipodi-0.dtd"
   xmlns:inkscape="http://www.inkscape.org/namespaces/inkscape"
   width="297mm"
   height="210mm"
   viewBox="0 0 1052.3622 744.09448"
   id="svg2"
   version="1.1"
   inkscape:version="0.91 r13725"
   sodipodi:docname="zynaps_logo.svg">
  <defs
     id="defs4" />
  <sodipodi:namedview
     id="base"
     pagecolor="#ffffff"
     bordercolor="#666666"
     borderopacity="1.0"
     inkscape:pageopacity="0.0"
     inkscape:pageshadow="2"
     inkscape:zoom="0.98994949"
     inkscape:cx="307.52434"
     inkscape:cy="554.89013"
     inkscape:document-units="px"
     inkscape:current-layer="layer6"
     showgrid="true"
     inkscape:window-width="1366"
     inkscape:window-height="705"
     inkscape:window-x="-8"
     inkscape:window-y="-8"
     inkscape:window-maximized="1">
    <inkscape:grid
       type="xygrid"
       id="grid4138"
       units="cm"
       spacingx="35.433071"
       spacingy="35.433071"
       dotted="false" />
  </sodipodi:namedview>
  <metadata
     id="metadata7">
    <rdf:RDF>
      <cc:Work
         rdf:about="">
        <dc:format>image/svg+xml</dc:format>
        <dc:type
           rdf:resource="http://purl.org/dc/dcmitype/StillImage" />
        <dc:title></dc:title>
      </cc:Work>
    </rdf:RDF>
  </metadata>
  <g
     inkscape:label="Z"
     inkscape:groupmode="layer"
     id="layer1"
     transform="translate(0,-308.26772)">
    <path
       style="fill:#ffff00;fill-rule:evenodd;stroke:#000000;stroke-width:2;stroke-linecap:butt;stroke-linejoin:miter;stroke-miterlimit:4;stroke-dasharray:none;stroke-opacity:1"
       d="m 70.788409,343.70078 35.433071,35.43307 35.43307,0 -106.299211,106.29921 318.819901,0 -35.43307,-35.43307 -212.52069,0 106.29921,-106.29921 z"
       id="path4146"
       inkscape:connector-curvature="0"
       sodipodi:nodetypes="ccccccccc" />
  </g>
  <g
     inkscape:groupmode="layer"
     id="layer3"
     inkscape:label="N">
    <path
       style="fill:#ffff00;fill-rule:evenodd;stroke:#000000;stroke-width:2;stroke-linecap:butt;stroke-linejoin:miter;stroke-opacity:1;stroke-miterlimit:4;stroke-dasharray:none"
       d="m 212.59842,212.59842 35.43307,-35.43308 0,-105.211327 35.43307,0 0,69.778257 35.43307,-35.43307 0,-70.86614 -106.29921,0 z"
       id="path4155"
       inkscape:connector-curvature="0"
       sodipodi:nodetypes="ccccccccc" />
  </g>
  <g
     inkscape:groupmode="layer"
     id="layer2"
     inkscape:label="Y">
    <path
       style="fill:#ffff00;fill-rule:evenodd;stroke:#000000;stroke-width:2;stroke-linecap:butt;stroke-linejoin:miter;stroke-opacity:1;stroke-miterlimit:4;stroke-dasharray:none"
       d="m 212.59842,70.866131 70.86614,-70.866142 35.43307,0 -106.29921,106.299211 0,106.29922 -35.43307,35.43307 0,-141.73229 -70.86614,-70.86614 35.43307,0 35.43307,35.433071 z"
       id="path4151"
       inkscape:connector-curvature="0" />
  </g>
  <g
     inkscape:groupmode="layer"
     id="layer4"
     inkscape:label="A">
    <path
       style="fill:#ffff00;fill-rule:evenodd;stroke:#000000;stroke-width:2;stroke-linecap:butt;stroke-linejoin:miter;stroke-opacity:1;stroke-miterlimit:4;stroke-dasharray:none"
       d="M 354.33008 0 L 318.89844 35.433594 L 318.89844 106.29883 L 354.33008 141.73242 L 354.33008 106.29883 L 389.76367 106.29883 L 389.76367 177.16602 L 425.19727 212.59766 L 425.19727 35.433594 L 389.76367 0 L 354.33008 0 z M 354.33008 35.433594 L 389.76367 35.433594 L 389.76367 70.865234 L 354.33008 70.865234 L 354.33008 35.433594 z "
       id="path4184" />
  </g>
  <g
     inkscape:groupmode="layer"
     id="layer5"
     inkscape:label="P">
    <path
       style="fill:#ffff00;fill-rule:evenodd;stroke:#000000;stroke-width:2;stroke-linecap:butt;stroke-linejoin:miter;stroke-opacity:1;stroke-miterlimit:4;stroke-dasharray:none"
       d="M 425.19727 35.433594 L 425.19727 212.59766 L 460.63086 177.16602 L 460.63086 141.73242 L 531.49609 70.865234 L 531.49609 35.433594 L 425.19727 35.433594 z M 460.63086 70.865234 L 496.0625 70.865234 L 460.63086 106.29883 L 460.63086 70.865234 z "
       id="path4192" />
  </g>
  <g
     inkscape:groupmode="layer"
     id="layer6"
     inkscape:label="S">
    <path
       style="fill:#ffff00;fill-rule:evenodd;stroke:#000000;stroke-width:2;stroke-linecap:butt;stroke-linejoin:miter;stroke-opacity:1;stroke-miterlimit:4;stroke-dasharray:none"
       d="m 566.92913,35.43306 -35.43307,35.433071 35.43307,35.433069 -141.73229,141.73229 0,35.43307 177.16536,-177.16536 -35.43307,-35.433069 35.43307,0 35.43307,-35.433071 z"
       id="path4198"
       inkscape:connector-curvature="0" />
  </g>
</svg>
